<svg xmlns="http://www.w3.org/2000/svg" viewBox="0 0 600 600">
    <path stroke="#000000" stroke-width="5" stroke-miterlimit="10" d="M161.9,452.4c-86.4,25.5-121.2,3.1-133.3-26.3
	c-17-41.4,12.2-96,241.1-193.7c230.7-97.3,289.1-79.7,305.5-39.5c12.7,29.2,6.1,69.9-73.5,114.9c-3.1,1.2-6.6,0.6-8.5-2.5
	c-1.2-3.1,0-6.6,2.5-8.5c66.9-37.7,80.3-72.3,68.8-99.1c-15.8-39-93.6-37.1-289.7,45.6c-197.4,84.3-250.9,139.1-235,178
	c10.9,26.8,46.1,40.8,118.6,18.9c3.6-0.6,6.6,1.2,7.8,4.3C166.7,447.5,164.9,451.2,161.9,452.4z M60.2,278.4
	c0-6.1,4.3-10.3,10.3-10.3c6.1,0,10.3,4.3,10.3,10.3c0,6.1-4.3,10.2-10.3,10.2C64.4,288.6,60.2,284.4,60.2,278.4z M73.6,124.4
	c0-6.1,4.3-10.3,10.3-10.3c6.1,0,10.3,4.3,10.3,10.3c0,6.1-4.3,10.3-10.3,10.3C77.8,134.7,73.6,130.5,73.6,124.4z M130.9,415.9
	c-19.4,0.6-28-9.1-33.4-19.4c-9.1-23.8,1.8-53.5,185-131.6c186.3-79.7,214.2-63.2,223.3-41.4c4.3,9.7,4.9,24.9-11.6,38.3
	c-3.1,1.8-6.6,1.8-9.1-1.2c-1.8-2.5-1.2-6.1,1.2-8.5c10.3-8.5,10.9-17.7,8.5-23.8c-9.1-20.7-66.3-12.7-207.6,47.4
	C142.9,337.9,100.4,370,108.9,391.3h-0.6c3.6,6.6,9.1,12.7,21.8,12.2c3.1,0,6.1,2.5,6.1,6.1C136.3,412.9,133.9,415.9,130.9,415.9z
	 M107.1,517.5c-6.1,0-10.3-4.3-10.3-10.3s4.3-10.3,10.3-10.3s10.3,4.3,10.3,10.3C117.5,513.4,113.2,517.5,107.1,517.5z M133.9,255.1
	c14-48.1,48.6-88.8,97.3-110c49.9-21.8,104.7-17,149.2,5.6c3.1,1.8,4.3,5.6,2.5,8.5c-1.2,2.5-5.6,3.6-7.8,2.5
	c-41.4-21.3-92.5-26.1-138.9-5.6c-45,20-77.3,58.3-90.6,102.7c-1.2,3.1-4.9,4.9-7.8,4.3C134.5,261.9,132.7,258.2,133.9,255.1z
	 M157,517.5c-6.1,0-10.3-4.3-10.3-10.3s4.3-10.3,10.3-10.3s10.3,4.3,10.3,10.3C167.3,513.4,163.1,517.5,157,517.5z M467.4,257
	c22.5,82.1-17.7,171.7-99.1,207.1c-81.5,34.7-174.8,1.8-218-73c-1.8-3.1-0.6-6.6,1.8-8.5c3.1-1.2,6.6-0.6,8.5,2.5
	c40.1,69.9,127.3,100.4,202.8,68.2c76-32.9,113.1-116.1,92.5-192.4c-1.2-3.6,0.6-6.6,4.3-7.8C463.2,252,466.2,254,467.4,257z
	 M216.7,28.7c0-6.1,4.3-10.3,10.3-10.3c6.1,0,10.3,4.3,10.3,10.3S233.2,39,227,39C221,39.2,216.7,34.9,216.7,28.7z M241,554.1
	c-6.1,0-10.3-4.3-10.3-10.3c0-6.1,4.3-10.3,10.3-10.3s10.3,4.3,10.3,10.3C251.4,549.9,247.1,554.1,241,554.1z M258.1,56.8
	c0-6.1,4.3-10.3,10.3-10.3s10.3,4.3,10.3,10.3s-4.3,10.3-10.3,10.3C262.4,67.1,258.1,62.8,258.1,56.8z M305.5,22.1
	c0-6.1,4.3-10.3,10.3-10.3c6.1,0,10.3,4.3,10.3,10.3s-4.3,10.3-10.3,10.3C309.8,32.6,305.5,28.1,305.5,22.1z M320.7,81.2
	c-6.1,0-10.3-4.3-10.3-10.3c0-6.1,4.3-10.3,10.3-10.3c6.1,0,10.3,4.3,10.3,10.3C331.1,76.9,326.8,81.2,320.7,81.2L320.7,81.2z
	 M375.6,74.5c-0.6-19.4,15.8-35.2,35.9-35.9h0.6c18.9,0.6,34,15.8,34.7,35.9c0,18.9-15.8,35.2-34.7,35.9h-0.6
	C391.3,109.8,375,93.4,375.6,74.5z M390.7,530.4c-6.1,0-10.3-4.3-10.3-10.3c0-6.1,4.3-10.3,10.3-10.3c6.1,0,10.3,4.3,10.3,10.3
	C401.1,526.1,396.8,530.4,390.7,530.4z M412.2,98.2c12.2-0.6,22.5-10.9,22.5-23.8c-0.6-12.7-10.3-23.1-22.5-23.8
	c-13.4,0.6-24.9,10.3-24.3,23.8C387.2,87.2,398.6,97.7,412.2,98.2z M418.2,579.7c0,6.1-4.3,10.3-10.3,10.3
	c-6.1,0-10.3-4.3-10.3-10.3s4.3-10.3,10.3-10.3C414,569.3,418.2,573.7,418.2,579.7L418.2,579.7z M452.9,539.6
	c-6.1,0-10.3-4.3-10.3-10.3c0-6.1,4.3-10.3,10.3-10.3c6.1,0,10.3,4.3,10.3,10.3C463.2,535.2,459,539.6,452.9,539.6z M480.3,452.4
	c0-6.1,4.3-10.3,10.3-10.3c6.1,0,10.3,4.3,10.3,10.3c0,6.1-4.3,10.3-10.3,10.3C484.5,462.7,480.3,458.5,480.3,452.4z M486.9,502.9
	c0-6.1,4.3-10.3,10.3-10.3c6.1,0,10.3,4.3,10.3,10.3c0,6.1-4.3,10.3-10.3,10.3C491.2,513.4,486.9,509.1,486.9,502.9z M500.9,81.2
	c-6.1,0-10.3-4.3-10.3-10.3c0-6.1,4.3-10.3,10.3-10.3c6.1,0,10.3,4.3,10.3,10.3C511.2,76.9,507,81.2,500.9,81.2L500.9,81.2z
	 M532.5,109.3c-6.1,0-10.3-4.3-10.3-10.3c0-6.1,4.3-10.3,10.3-10.3s10.3,4.3,10.3,10.3C542.9,105,538.7,109.3,532.5,109.3
	L532.5,109.3z M540.5,379.4c0-6.1,4.3-10.3,10.3-10.3s10.3,4.3,10.3,10.3c0,6.1-4.3,10.3-10.3,10.3
	C544.7,389.8,540.5,385.6,540.5,379.4z"/>
</svg>
