<svg xmlns="http://www.w3.org/2000/svg" viewBox="0 0 500 500">
	<path d="M109.3 220.3l.5.2c.5.1 1.1.2 1.6.2 3.6 0 7.1-2.2 8.4-5.6l.1-.2c11.5-38.1 39-69.3 75.4-85.5 36.2-16.2 78.2-14.5 115.3 4.6 1.7.8 3.8.9 5.9.3 2.1-.6 3.8-1.9 4.7-3.6 2.3-3.9.9-8.8-3.1-11.2l-.2-.1c-41.3-20.9-88.4-22.6-129.2-4.7-41.2 18-71.9 52.8-84.3 95.3-1.5 3.9.7 8.6 4.9 10.3zm28.1 150.2c-1.6-4-5.6-6.2-9.9-5.4l-.4.1c-52.4 15.9-87 10.8-97.2-14.3-6.7-16.6 3.4-35.5 31-57.7 8.8-7.1 19.5-14.6 32-22.3-.2-2.7.2-5.5 1.3-8.1l.1-.4c.2-.5.3-.9.5-1.4l.3-.8c1.7-4.2 4.2-9.5 8.5-14.5C76.1 261.3 55 275.9 40 289.6 14 313.5 6.1 335 15.2 357.3c7 16.8 23.3 33.5 60.1 33.5 15.1 0 33.8-2.8 56.6-9.6l.3-.1c3.9-1.5 6.2-6 5.4-10l-.2-.6zm347.4-213.6c-4.7-11.4-12.5-19.2-23.8-23.9-36.9-15.3-113.1 2.5-239.6 55.9-.3.1-.5.2-.8.3.6.1 1.2.1 1.7.2 3.9.6 7.6 1.4 11.2 2.2l1.9.4c3.6.8 6.4 2.4 8.5 4.9C353 152 423.8 135.7 454.5 148.4c7.6 3.2 12.7 8 15.5 14.9 11 25.4-8.8 53.3-57.2 80.5l-.3.2c-3.2 2.4-4.5 7-3 10.7l.2.4c2.2 3.6 6.6 5 10.9 3.3l.4-.2c71.7-40.4 74.2-77.4 63.8-101.3z"/>
	<path d="M104.1 334h-.1c-7.8.4-11.7-2.5-14.3-6.3l-.9-2.2c-3.6-8.9 7.3-21.2 33.5-37.4-.9 0-1.8 0-2.8-.1-5.1-.3-10.2-1.3-15.3-3.1-1.3-.5-2.5-1-3.6-1.7-3.2 2.3-6.2 4.6-8.9 6.7-23 18.9-22.1 31.8-18.2 41.9l.1.3c4.2 7.8 11.7 18.1 29.6 18.1h1.5c4.1 0 7.6-3.7 7.6-8.1 0-4.5-3.7-8.1-8.2-8.1zm321.7-151.2c-1.8-4.4-5.3-10.7-14-14.2-14.4-5.8-47.2-7.6-165.3 41.8 0 .2-.1.3-.1.5l-.1.2-.7 1.8c-.6 1.3-1.1 2.3-1.6 3.4-.3.7-.6 1.3-1 2l-3.8 7.1c-1.7 2.8-3.6 5.5-5.6 8 1.6-.7 3.3-1.4 4.9-2.1 56.9-24.3 100.5-39.7 129.7-45.8 24.6-5.1 39.4-3.8 42.7 3.8 1 2.6 2.5 9.5-6.4 16.8l-.2.2c-3.1 3.1-3.7 7.9-1.3 11.2 2.8 3.5 7.5 4.2 11.6 1.7l.3-.2c18.3-15 13-31.5 10.9-36.2z"/>
	<path d="M393.4 211.6l-.1-.3c-1.6-3.9-5.6-6.2-9.5-5.4l-.4.1c-2.3.8-4 2.1-5 4-1.1 1.9-1.2 4.2-.5 6.4 17.5 64.6-15.5 133.3-76.9 159.8-62.2 26.6-134.6 2.2-168.5-56.7-2.2-3.6-6.6-5-10.9-3.3l-.4.1-.3.2c-3.5 2.6-4.5 7.4-2.3 11.1 27.6 47.8 78 75.2 130.3 75.2 19.6 0 39.5-3.9 58.5-11.9 33.8-14.6 61.1-41.1 76.8-74.4 15.5-32.9 18.7-70.2 9.2-104.9zm-267.1 17.5c.1 2.3 1.9 3.4 2.6 3.8l1.1.6c.4.2.8.5 1.2.7l3.8 2.4c.7.4 1.4.8 2.1 1.3-.2.2-.3.4-.5.6l-.4.4c-1.1 1.2-3.4 3.6-2.3 7.4 1.5 5.4 4 10.3 7.3 14.5 1.3 1.6 3 2.6 4.9 2.7.6 0 1.2 0 1.7-.1l1.9-.3c-.3 3.2-.7 6.4-1.1 9.5-.1.9-.3 2.6.9 4.1.7.8 1.7 1.4 2.9 1.4.9 0 1.6-.1 2.5-.5l3.4-1.2c2.8-1 5.5-2 8.3-2.9 2.1-.7 3.5-2.2 4.2-4.3.6-2.1 1.3-4.2 1.9-6.3.7-2.1 1.3-4.3 2-6.4 4.4-1.7 9-3.4 13.8-5.4 4.1-1.6 7.9-3.2 11.5-4.7 5.1-2.1 10.4-4.6 15.1-8.1 6.3-4.7 11.8-10.9 16.4-18.5 1.5-2.5 2.7-5.1 3.9-7.7.5-1.1 1-2.2 1.7-3.5l.2-.4c.3-1.1.8-2.8-.2-4.5-1-1.7-2.9-2.1-3.7-2.3l-1.9-.4c-3.4-.8-6.9-1.6-10.5-2.1-1.9-.3-4.3-.3-6.4-.3h-2.4c-4.9-.1-10 .6-15.8 2.3-6.7 1.9-12.5 5.3-18.2 8.6l-.9.5c-5.3 3.1-11.5 6.8-17.5 10.7-1.5 1-2.2 1.1-2.8 1-.5 0-1-.2-1.7-.5-1.9-.9-4-1.6-5.8-2.2-1.3-.4-2.5-.8-3.8-1.3-2.7-1.1-4.8-.9-6.9.6-.8.6-1.7 1.1-2.5 1.7l-3.1 2.1-4.5 3c-.7.5-2.5 1.7-2.4 4zm23.7 7c-.2-1.7-.9-3.4-1.9-4.7.8.3 1.5.5 2.1.8 5.5 2.5 10.8 2.1 16.1-1.4 5.7-3.8 11.8-7.3 17-10.3l.9-.5c5.3-3.1 10.2-5.9 15.5-7.5 4.7-1.3 8.6-1.9 12.3-1.9h2.8c1.7 0 3.3 0 4.7.2 1 .1 2 .3 3.2.5-.4.8-.8 1.5-1.3 2.3-3.7 6.2-8.2 11.2-13.2 15-.7.5-1.5 1-2.3 1.5 1.4-1.6 2.4-3.7 2.5-6 .3-5.5-3.9-10.1-9.3-10.5-5.5-.3-10.1 3.9-10.5 9.3-.3 5.5 3.9 10.1 9.3 10.5.6 0 1.3 0 1.9-.1-1.4.7-2.9 1.3-4.3 1.9-3.5 1.5-7.2 3-11.3 4.6-4.7 1.9-9.3 3.7-13.7 5.3-3.6 1.4-6.1 4-7.2 7.7-.5 1.7-1.1 3.5-1.6 5.3-.4-1.2-1-2.4-1.9-3.5-1.9-2.2-4.7-3.6-7.5-3.8h-1.6l-1.2.1h-.5c-1.1-1.7-2-3.5-2.7-5.4l.1-.1-.2-.2c-.1-.1-.1-.3-.1-.4l.5.4c.3-.3.6-.6.8-.9 2.1-2.1 3.1-5.1 2.6-8.2zm51.9-12.3c-.1 2-1.8 3.5-3.8 3.4-2-.1-3.5-1.8-3.4-3.8.1-2 1.8-3.5 3.8-3.4 2 .1 3.5 1.8 3.4 3.8zm-38.4 36.5zm-40.2-3.9c.6-.4 1.4-.8 2.2-1.3 3.1.1 5.9-2.2 6.3-5.3.3-2.5-1.1-4.9-3.2-6v-.2l-1.4-.3c-.1 0-.3-.1-.5-.1l-.2-.1c-.4-.1-1-.2-1.6-.2l-.7-.1v.1c-.8.1-1.6.3-2.4.6l-.5.2c-1.6.7-3.3 1.6-5 2.8-7 5-10.5 12.1-12.5 17l-.1.4c-.1.4-.3.8-.4 1.3-.1.4-.2.7-.3 1-.8 2-.9 4-.1 5.8.8 1.8 2.3 3.2 4.5 3.9 4.3 1.5 8.5 2.4 12.8 2.6.9.1 1.9.1 2.8.1 5.6 0 10.5-1.4 14.9-4.1 1.5-.9 2.2-2.1 2.6-2.9 1.8-2.7 1.1-6.4-1.5-8.3-2.6-1.8-6.5-1.2-8.4 1.4-2.3 1.2-4.8 1.8-7.7 1.8-2.3 0-4.5-.2-6.8-.7 1.9-4.3 4.2-7.3 7.2-9.4z"/>
</svg>